HIERARCHY
ROOT Hips
{
  OFFSET 0 0 0
  CHANNELS 6 Xposition Yposition Zposition Zrotation Yrotation Xrotation
  JOINT LeftThigh
  {
    OFFSET 8.409438 0 -5.917753
    CHANNELS 3 Zrotation Yrotation Xrotation
    JOINT LeftLeg
    {
      OFFSET 0 0 -42.358652
      CHANNELS 3 Zrotation Yrotation Xrotation
      JOINT LeftFoot
      {
        OFFSET 0 0 -39.357303
        CHANNELS 3 Zrotation Yrotation Xrotation
      }
    }
  }
  JOINT RightThigh
  {
    OFFSET -8.409438 0 -5.917753
    CHANNELS 3 Zrotation Yrotation Xrotation
    JOINT RightLeg
    {
      OFFSET 0 0 -42.358652
      CHANNELS 3 Zrotation Yrotation Xrotation
      JOINT RightFoot
      {
        OFFSET 0 0 -39.357303
        CHANNELS 3 Zrotation Yrotation Xrotation
      }
    }
  }
  JOINT SpineLow
  {
    OFFSET 0 0 4.719101
    CHANNELS 3 Zrotation Yrotation Xrotation
    JOINT SpineMid
    {
      OFFSET 0 0 12.899191
      CHANNELS 3 Zrotation Yrotation Xrotation
      JOINT Chest
      {
        OFFSET 0 0 12.899191
        CHANNELS 3 Zrotation Yrotation Xrotation
        JOINT LeftShoulder
        {
          OFFSET 7.550562 1.41573 9.438202
          CHANNELS 3 Zrotation Yrotation Xrotation
          JOINT LeftArm
          {
            OFFSET 9.155056 0 4.247191
            CHANNELS 3 Zrotation Yrotation Xrotation
            JOINT LeftForearm
            {
              OFFSET 0 0 25.771955
              CHANNELS 3 Zrotation Yrotation Xrotation
              JOINT LeftHand
              {
                OFFSET 0 0 25.197169
                CHANNELS 3 Zrotation Yrotation Xrotation
              }
            }
          }
        }
        JOINT RightShoulder
        {
          OFFSET -7.550562 1.41573 9.438202
          CHANNELS 3 Zrotation Yrotation Xrotation
          JOINT RightArm
          {
            OFFSET -9.155056 0 4.247191
            CHANNELS 3 Zrotation Yrotation Xrotation
            JOINT RightForearm
            {
              OFFSET 0 0 -25.771955
              CHANNELS 3 Zrotation Yrotation Xrotation
              JOINT RightHand
              {
                OFFSET 0 0 -25.197169
                CHANNELS 3 Zrotation Yrotation Xrotation
              }
            }
          }
        }
        JOINT Neck
        {
          OFFSET 0 0 15.101124
          CHANNELS 3 Zrotation Yrotation Xrotation
          JOINT Head
          {
            OFFSET 0 0 11.325843
            CHANNELS 3 Zrotation Yrotation Xrotation
            End Site
            {
              OFFSET 0 0 14.157303
            }
          }
        }
      }
    }
  }
}
MOTION
Frames: 9
Frame Time: 0.0
0.0  89.887642  0.0  -0.579965  -19.769439  -95.131078  0.811565  -14.98533  3.808509  -0.988431  1.190742  17.144659  0.827959  0.28091  1.261556  -7.716404  10.034232  -2.552617  -10.328853  4.717876  4.517122  5.080849  -0.107219  -1.503955  -0.230383  -0.10044  0.289014  -0.630922  -0.271781  0.790944  -0.630922  -0.271781  0.790944  -11.268929  18.613641  5.028159  161.778292  39.826002  -161.46925  -0.971343  -3.467181  48.290227  89.425874  -1.316816  2.331439  -2.064061  -7.542367  24.770004  95.246283  39.719701  45.86118  1.68872  3.281071  -30.453363  89.546431  6.484475  -13.580657  -0.325458  4.1514  13.670374  -0.337218  3.108116  10.250502  
0.0  89.887642  0.0  -0.529632  -19.539706  -95.264407  0.764942  -15.03726  3.69452  -1.093344  1.35289  17.441726  0.756049  0.251513  1.268866  -7.823284  10.069059  -2.590923  -10.198199  4.813397  4.968173  5.234258  0.013777  -1.567658  -0.226677  -0.087665  0.326693  -0.620773  -0.236554  0.8938  -0.620773  -0.236554  0.8938  -11.380869  18.636469  5.068254  162.016676  40.107247  -161.327165  -1.017108  -3.347991  48.587185  89.605473  -1.13542  2.349957  -2.08827  -7.44806  24.73708  95.164944  39.784092  45.611302  1.711742  3.284528  -30.094758  89.519527  6.482894  -13.480439  -0.50625  3.963279  13.252312  -0.465882  2.963138  9.938556  
0.0  89.887642  0.0  -0.53786  -19.169945  -95.363303  0.691764  -15.175613  3.547265  -1.498143  1.527755  17.616733  0.785106  0.29848  1.365867  -8.147727  10.024672  -2.760829  -10.088776  4.969652  5.535572  5.318409  0.124755  -1.635062  -0.229991  -0.083763  0.366058  -0.629911  -0.225469  1.001373  -0.629911  -0.225469  1.001373  -11.693344  18.648436  5.020459  162.167268  40.423454  -161.187267  -1.192686  -3.23838  48.850345  89.797961  -0.903663  2.41435  -2.398256  -7.341381  24.589581  95.087675  39.823  45.361637  1.839672  3.279102  -29.774035  89.538148  6.510367  -13.402504  -0.735525  3.785176  12.799677  -0.631169  2.824954  9.600834  
0.0  89.887642  0.0  -0.477953  -18.857067  -95.449518  0.802139  -15.258051  3.295924  -1.840934  1.777602  17.969378  0.689658  0.270378  1.351248  -8.257237  10.018198  -3.022978  -9.804834  5.189806  6.295118  5.447552  0.244103  -1.682174  -0.232989  -0.071794  0.396053  -0.63801  -0.192418  1.083256  -0.63801  -0.192418  1.083255  -11.861136  18.670925  4.99652  162.360005  40.718363  -161.039151  -1.286971  -3.141846  49.283176  90.043952  -0.610158  2.530696  -2.382511  -7.196394  24.583141  95.051776  39.874928  45.161419  1.763604  3.187459  -29.437479  89.49879  6.495323  -13.293373  -0.975334  3.603243  12.322436  -0.8044  2.684072  9.244557  
0.0  89.887642  0.0  -0.464542  -18.475053  -95.4889  0.996084  -15.44755  2.996386  -2.358226  2.071541  18.29522  0.61995  0.305883  1.340025  -8.512304  9.938228  -3.44067  -10.506201  5.460489  6.990428  6.396181  0.456312  -1.585805  -0.242173  -0.067566  0.43161  -0.663138  -0.180355  1.180427  -0.663138  -0.180355  1.180427  -12.162653  18.663999  4.828407  162.476258  41.007253  -160.887717  -1.464712  -3.09383  49.714564  90.305671  -0.26722  2.648898  -2.635665  -7.060352  24.410392  95.130896  39.896481  45.020655  1.793335  3.108872  -29.128567  89.450854  6.53945  -13.224788  -1.184856  3.465924  11.819149  -0.95591  2.577688  8.868416  
0.0  89.887642  0.0  -0.381643  -18.099713  -95.512637  1.28632  -15.588993  2.565575  -2.837105  2.472895  18.746837  0.508906  0.272134  1.304172  -8.631997  9.880338  -3.968165  -10.064843  5.84549  8.119769  6.422712  0.565079  -1.624075  -0.25242  -0.055265  0.453589  -0.690974  -0.14632  1.240403  -0.690974  -0.14632  1.240402  -12.36443  18.720807  4.703723  162.446613  41.335494  -160.732601  -1.607974  -3.11378  50.23767  90.540998  0.097704  2.722404  -2.625503  -6.835459  24.355198  95.276544  39.894954  44.911345  1.686937  3.01228  -28.818144  89.436862  6.520013  -13.08059  -1.491023  3.298655  11.294024  -1.179466  2.44745  8.476285  
0.0  89.887642  0.0  -0.371292  -17.633497  -95.462104  1.574029  -15.857079  1.976938  -3.422154  2.947132  19.252869  0.475745  0.329014  1.275447  -9.193727  9.71502  -4.752036  -10.543857  6.263789  9.173582  7.478033  0.81763  -1.469197  -0.27371  -0.054438  0.472369  -0.749191  -0.143448  1.291774  -0.749191  -0.143448  1.291774  -12.882667  18.724134  4.445164  162.442968  41.562749  -160.564067  -1.830944  -3.279148  50.879588  90.785201  0.527145  2.82164  -2.688256  -6.615653  24.247041  95.409922  39.93602  44.805433  1.5878  2.921146  -28.48456  89.378743  6.496838  -12.941574  -1.668602  3.179482  10.819181  -1.307963  2.355973  8.121057  
0.0  89.887642  0.0  -0.273932  -17.191739  -95.387736  2.029757  -16.078389  1.273011  -3.912703  3.533222  19.895663  0.324232  0.335163  1.161052  -9.447415  9.633867  -5.599222  -9.941779  6.704753  10.670233  7.389284  1.01113  -1.48484  -0.30144  -0.045521  0.479853  -0.824823  -0.11844  1.312177  -0.824823  -0.11844  1.312177  -13.148838  18.801613  4.238845  162.042462  41.76647  -160.484387  -2.170327  -3.570318  51.781748  91.089667  1.049563  2.968756  -2.590515  -6.344647  24.162877  95.630234  39.952508  44.724413  1.573539  2.894536  -28.080369  89.43208  6.423288  -12.7029  -1.965998  3.036844  10.288755  -1.525841  2.245322  7.724625  
0.0  89.887642  0.0  -0.233948  -16.607932  -95.243504  2.349148  -16.398694  0.392367  -4.565418  4.155192  20.553865  0.319137  0.432457  1.154815  -9.863277  9.538409  -6.797381  -9.69076  7.173005  12.491729  7.481359  1.274586  -1.494281  -0.386072  -0.043829  0.46904  -1.056095  -0.112307  1.282736  -1.056095  -0.112307  1.282735  -13.502576  18.838476  4.0072  161.829261  41.869479  -160.338711  -2.717057  -3.848508  52.933568  91.461947  1.60391  3.086094  -2.130351  -6.075679  24.202107  95.716977  40.091025  44.586598  1.61604  2.947568  -27.584604  89.533675  6.334897  -12.399449  -2.051379  2.915301  9.828141  -1.585612  2.15418  7.3794  
